inDegrees=no
num_controls=7
num_derivatives=13
num_iterations=129
num_multipliers=7
num_parameters=0
num_slacks=7
num_states=26
objective=5.603065
objective_accelerations=0.741349
objective_balance=0.025570
objective_effort=0.709790
objective_height=4.054048
objective_ligament=0.072309
solver_duration=1357.628423
status=Solve_Succeeded
success=true
DataType=double
version=3
OpenSimVersion=4.4-2022-07-23-0e9fedc
endheader
time	/jointset/ground_pelvis/pelvis_tilt/value	/jointset/ground_pelvis/pelvis_tx/value	/jointset/ground_pelvis/pelvis_ty/value	/jointset/hip_l/hip_flexion_l/value	/jointset/hip_l/hip_adduction_l/value	/jointset/hip_l/hip_rotation_l/value	/jointset/back/lumbar_extension/value	/jointset/patellofemoral_l/patellar_flexion_l/value	/jointset/knee_l/knee_flexion_l/value	/jointset/knee_l/knee_adduction_l/value	/jointset/knee_l/knee_rotation_l/value	/jointset/ankle_l/ankle_angle_l/value	/jointset/subtalar_l/subtalar_angle_l/value	/jointset/ground_pelvis/pelvis_tilt/speed	/jointset/ground_pelvis/pelvis_tx/speed	/jointset/ground_pelvis/pelvis_ty/speed	/jointset/hip_l/hip_flexion_l/speed	/jointset/hip_l/hip_adduction_l/speed	/jointset/hip_l/hip_rotation_l/speed	/jointset/back/lumbar_extension/speed	/jointset/patellofemoral_l/patellar_flexion_l/speed	/jointset/knee_l/knee_flexion_l/speed	/jointset/knee_l/knee_adduction_l/speed	/jointset/knee_l/knee_rotation_l/speed	/jointset/ankle_l/ankle_angle_l/speed	/jointset/subtalar_l/subtalar_angle_l/speed	/forceset/tau_hip_flexion_l	/forceset/tau_hip_adduction_l	/forceset/tau_hip_rotation_l	/forceset/tau_knee_flexion_l	/forceset/tau_ankle_angle_l	/forceset/tau_subtalar_angle_l	/forceset/tau_lumbar_extension	lambda_cid13_p0	lambda_cid13_p1	lambda_cid13_p2	lambda_cid13_p3	lambda_cid13_p4	lambda_cid13_p5	lambda_cid14_p0	/jointset/ground_pelvis/pelvis_tilt/accel	/jointset/ground_pelvis/pelvis_tx/accel	/jointset/ground_pelvis/pelvis_ty/accel	/jointset/hip_l/hip_flexion_l/accel	/jointset/hip_l/hip_adduction_l/accel	/jointset/hip_l/hip_rotation_l/accel	/jointset/back/lumbar_extension/accel	/jointset/patellofemoral_l/patellar_flexion_l/accel	/jointset/knee_l/knee_flexion_l/accel	/jointset/knee_l/knee_adduction_l/accel	/jointset/knee_l/knee_rotation_l/accel	/jointset/ankle_l/ankle_angle_l/accel	/jointset/subtalar_l/subtalar_angle_l/accel	gamma_cid13_p0	gamma_cid13_p1	gamma_cid13_p2	gamma_cid13_p3	gamma_cid13_p4	gamma_cid13_p5	gamma_cid14_p0
0	-0.0355845432930103	0.05613798276903798	0.9203634482350966	0.3085811930696054	-0.2952890522544639	-0.2938443890870595	-0.3879500408040475	0.2499276582271028	0.249927658227084	-0.1745328963921296	-0.1669171054939319	-0.0008036543073733089	0.0007021180173533756	0	0	0	0	0	0	0	0	0	0	0	0	0	0.1071501835331633	-0.02876121641376605	-0.01381547080483966	-0.2016618730258361	0.08409063279342692	-0.02609121845570987	-0.05557490927262313	-14.30245569149008	10.65886999771959	1.475049737649553	62.33914848971308	-560.7372873009957	-55.47344720081977	-22.94169379292071	-2.328738778796105	-4.128245775658359	-1.751589676112387	17.93432789846153	-1.28309283639647	5.286758421350736	-11.24975241855902	16.93857803791337	16.93857803790272	2.694466977216046	-0.7439427447082415	2.266794393186244	-0.6106290217381358	6.115558276581985e-08	3.687665972321449e-07	1.05954451331106e-07	-1.013584551860975e-07	6.634292544174298e-07	6.567666506725055e-08	8.73943112469421e-09
0.01	-0.03569357621639539	0.05593533127882366	0.9202777918412294	0.3094554686320548	-0.2953537551583523	-0.2935789863293449	-0.3885095203126565	0.2507590316417077	0.2507590316416847	-0.1744047176661836	-0.166948688803172	-0.0006918885630956049	0.0006704608046971715	-0.02167502096869223	-0.04017706615386223	-0.01706240337421862	0.1737555962989688	-0.01284919598653032	0.05287107094722408	-0.1109136019521744	0.165390374897525	0.1653903748974979	0.02549661609068016	-0.006183409018899322	0.02241547263822363	-0.00621397325659045	0.09935597044497282	-0.03695019140376596	-0.01333787262255173	-0.1997312969289061	0.08400110278877616	-0.01545616368095228	-0.04685081504024078	-14.0993887358002	6.111179147274592	2.078237742968603	58.40792981123201	-565.8332923100917	-64.24254368938088	-22.95231213779	-2.067176036761758	-3.909472525050393	-1.673101672361682	16.93123443021527	-1.272206221511513	5.255862295885888	-10.86481911691831	16.2066192649599	16.20661926496244	2.456463197833098	-0.535546160281727	2.238286848245435	-0.6092334385798833	-2.465919075747439e-08	4.078197257123796e-07	3.189279903229191e-07	-3.917722139042159e-09	3.238828370881267e-07	-6.821087050780191e-08	-8.641204917928506e-09
0.02	-0.03601541780566121	0.05534150202910908	0.9200236042127626	0.3120343119443795	-0.2955442246704471	-0.2927911566892526	-0.3901486668474716	0.2532177792151166	0.2532177792151147	-0.1740257319247151	-0.167038107438596	-0.0003540954626142576	0.000580173467282937	-0.04256173317149824	-0.07823555190004793	-0.03370624691990488	0.3409135499819694	-0.0251533216422622	0.1044853764735442	-0.2159334052391248	0.3254748317665611	0.3254748317665574	0.05016140309491775	-0.01156706522983981	0.04520547124064008	-0.01172602495160131	0.09156175735657546	-0.04513916639379111	-0.0128602744400993	-0.197800720832129	0.08391157278407874	-0.004821108906238765	-0.03812672080797262	-13.7596390223096	1.543107817940325	2.680611429890712	54.34435723024883	-568.8321391509559	-72.86196175110003	-22.98317803312596	-2.171077025618251	-3.704529694123575	-1.667877710405925	16.61479937526794	-1.174078770236779	5.035405337169907	-10.07099268551383	15.87739443221566	15.87739443221515	2.528101159927569	-0.5839921831165655	2.341699586024226	-0.4702447094224164	-1.104739642807686e-07	4.468728541926141e-07	5.319015293147321e-07	9.352301090801316e-08	-1.566358024117647e-08	-2.020984060828544e-07	-2.602184096055122e-08
0.03	-0.03654296553563197	0.05437735380960382	0.919604230593718	0.3162535549056493	-0.2958544940752169	-0.2914952449115668	-0.3928084413479266	0.257251233601218	0.2572512336012046	-0.1734037402001943	-0.1671787375454168	0.00021281233373782	0.0004385789984335599	-0.06282120569614212	-0.1142740613124289	-0.05016978162094735	0.5019238177530334	-0.03678954740151007	0.154396883823042	-0.315115450089491	0.4803621204566981	0.4803621204567113	0.07408237084405002	-0.01649411542883273	0.06817650763670365	-0.0164775919850275	0.08295996496042969	-0.04047031930826436	-0.01223134315807162	-0.1943285458913617	0.0849026976876872	-0.006012040105563277	-0.02963932844073795	-13.44063777088031	1.986210471653854	2.630832629569369	51.42158784586564	-570.1028673637782	-70.6376594352413	-23.0322265575073	-1.934411134873339	-3.505487864607075	-1.635791564382021	15.6924346506685	-1.141884869996105	4.923948685801196	-9.705903669411294	15.16631261277766	15.16631261278028	2.301036927863858	-0.4372569052535357	2.274875832331817	-0.4604537931992567	-1.558920365059784e-07	3.871802591553404e-07	6.365149956377921e-07	1.422095824492214e-07	-2.192586305163811e-07	-2.830939596997733e-07	-4.133625649832474e-08
0.04	-0.03726931374466902	0.05306242523601078	0.9190201815847771	0.3220525593791522	-0.2962778238158245	-0.289709233009994	-0.396432854953813	0.2628079441792893	0.2628079441792895	-0.1725471503290919	-0.1673666772476269	0.001009444527236863	0.0002529006406705574	-0.0823218289801204	-0.148391622717599	-0.06664132489913757	0.6568658524298046	-0.04776538880985542	0.2025054012509949	-0.4088612263243015	0.630126070161433	0.6301260701614572	0.09708103241149439	-0.02102898430634571	0.0911503506701359	-0.02054280273431861	0.07435817256436196	-0.03580147222273065	-0.01160241187599857	-0.1908563709505579	0.08589382259131248	-0.007202971304875402	-0.02115193607345457	-13.00228428915808	2.413614284721492	2.57761418832745	48.36310523194464	-569.5641052255733	-68.26981020745178	-23.09690870478188	-2.019307177484526	-3.320340092681892	-1.669479425835485	15.40115275640942	-1.042001900056253	4.674807352860903	-8.983738962402274	14.85272663513534	14.85272663513364	2.343639923590056	-0.505555918820666	2.342260913497408	-0.3329734525955757	-2.004771870549391e-07	3.254516698187365e-07	7.388942336584036e-07	1.898909135470102e-07	-4.200505598213983e-07	-3.629989569876586e-07	-5.66080695514622e-08
0.05	-0.03818772053848123	0.05141602866981233	0.9182707501465183	0.3293721215562772	-0.2968071479534182	-0.2874516331533101	-0.4009667169604005	0.2698372658679054	0.2698372658679078	-0.1714646430834724	-0.1675982703041707	0.002035961958082231	3.051304412799784e-05	-0.1012211275197524	-0.1805549432303438	-0.08329083252203688	0.8060254641687464	-0.05797218690560312	0.2487384907584366	-0.4970317248687372	0.7748735328561163	0.7748735328561066	0.1192377357816596	-0.0251764160503221	0.114146639509691	-0.02380687715566015	0.06569667702219376	-0.03535378776690411	-0.01092815393447023	-0.1882664041131774	0.08658502559573152	-0.004769055372960634	-0.01289486497239925	-12.48162054308886	1.297779007908434	2.718525537508319	45.14392128915203	-568.3653435780377	-69.09368329683323	-23.17402692445592	-1.804492277261677	-3.114377574634859	-1.669652528627595	14.52017504138866	-0.9910763158082371	4.556049270940767	-8.601787780821939	14.15605732600117	14.15605732599741	2.124408583155616	-0.3522358286555877	2.277338382952601	-0.3040843458310226	-2.192695484154284e-07	2.507929019893378e-07	7.585252764826618e-07	2.134187227723607e-07	-5.298579201237637e-07	-3.929625407005516e-07	-6.384531495452498e-08
